<?xml version="1.0" encoding="utf-8"?>
<!-- Generator: Adobe Illustrator 27.1.0, SVG Export Plug-In . SVG Version: 6.00 Build 0)  -->
<svg version="1.1" id="Capa_1" xmlns="http://www.w3.org/2000/svg" xmlns:xlink="http://www.w3.org/1999/xlink" x="0px" y="0px"
	 viewBox="0 0 267.3 84.1" style="enable-background:new 0 0 267.3 84.1;" xml:space="preserve">
<style type="text/css">
	.st0{fill:none;}
	.st1{fill:#2B59FF;}
</style>
<g>
	<g>
		<g>
			<rect x="7" y="-7.9" class="st0" width="100" height="100"/>
			<circle class="st1" cx="22.7" cy="72.9" r="5.1"/>
			<path class="st1" d="M106.9,65.7c-0.1-1.1-0.4-2.4-0.8-3.2s-1.2-2.7-1.2-4.1s0.8-2.2-1.2-2.1s-16-4.1-19-5.2s-18.7-6.1-34.9-0.4
				c-6,2.1-10.7,6.6-15,6.6c-8.5-0.2-16.9,1.6-24.6,5.2c-4.8,2.3-2.4,5-2.7,7.2c-0.2,1.2-0.2,2.5,0,3.7C7.7,74,7.7,74,7,74.9
				s7.8,1.4,9.7,1.3c-1.7-3.3-0.4-7.5,2.9-9.2c3.3-1.7,7.5-0.4,9.2,2.9c0.8,1.6,1,3.4,0.5,5.1h49.3c-0.2-0.6-0.3-1.3-0.3-2
				c-0.1-3.8,2.8-6.9,6.6-7.1c3.8-0.1,6.9,2.8,7.1,6.6c0,0.2,0,0.3,0,0.5c0,0.2,0,0.4,0,0.6c1.3,0,2.6,0,2.8-0.1
				c1.7-0.2,9.2-0.3,11-1.4S107,66.8,106.9,65.7z M77.2,56.1c-4.8,0.3-28.7,2-37.5,2.7c0,0,10.3-8.3,21.5-9
				c13.5-0.9,19.6,1.3,23.9,4.5C84.2,55.9,84.8,55.6,77.2,56.1z"/>
			<circle class="st1" cx="85.1" cy="72.9" r="5.1"/>
			<path class="st1" d="M57,6.2c-6.9,0-12.4,5.6-12.4,12.4c0,5.9,9.4,21.7,11.8,25.7c0.2,0.3,0.6,0.4,0.9,0.2
				c0.1-0.1,0.2-0.1,0.2-0.2c2.4-4,11.8-19.9,11.8-25.7C69.4,11.7,63.9,6.2,57,6.2z M57,24.6c-3.2,0-5.8-2.6-5.8-5.8S53.8,13,57,13
				c3.2,0,5.8,2.6,5.8,5.8c0,0,0,0,0,0C62.8,22,60.2,24.6,57,24.6z"/>
		</g>
	</g>
	<g>
		<path class="st1" d="M133.2,69.1l-0.3,3.7c-1.5,0.4-3,0.5-4.5,0.5c-3.7,0-6.5-1-8.4-3.1c-1.9-2-2.9-4.5-2.9-7.4c0-3,1-5.6,3.1-7.9
			c2-2.2,4.9-3.4,8.4-3.4c1.3,0,2.6,0.2,3.7,0.5l-0.6,3.7c-1.3-0.4-2.5-0.6-3.6-0.6c-2.2,0-3.8,0.7-4.9,2.1c-1.1,1.4-1.6,3.1-1.6,5
			c0,2,0.6,3.8,1.9,5.3c1.3,1.5,3,2.2,5.3,2.2C130.2,69.8,131.6,69.6,133.2,69.1z"/>
		<path class="st1" d="M149,72.9l-3.8,0.1c-0.2-0.5-0.3-0.9-0.3-1.2h-0.2c-1.2,1-2.8,1.5-4.8,1.5c-1.3,0-2.5-0.4-3.3-1.1
			c-0.9-0.7-1.3-1.7-1.3-3c0-1.6,0.7-3,2.1-4c1.4-1,3.8-1.6,7.3-1.7c0-0.2,0-0.4,0-0.5c0-1.2-0.3-1.9-0.8-2.3
			c-0.6-0.4-1.6-0.6-3.1-0.6c-1.6,0-3.2,0.2-4.8,0.6l0.4-3c1.5-0.5,3.5-0.8,6.2-0.8c1.9,0,3.4,0.4,4.5,1.2c1.1,0.8,1.6,2.2,1.6,4.3
			c0,0.5,0,1.3-0.1,2.5c0,1.2-0.1,2-0.1,2.4C148.4,69.7,148.6,71.5,149,72.9z M144.7,69.6c-0.1-1.5-0.1-2.7-0.1-3.8
			c-3.7,0-5.5,0.9-5.5,2.8c0,1.3,0.8,1.9,2.4,1.9C142.8,70.5,143.8,70.2,144.7,69.6z"/>
		<path class="st1" d="M162.7,57.6l-0.9,3.8c-0.8-0.3-1.6-0.5-2.4-0.5c-1.6,0-2.6,0.7-3.1,2.1c0,4.3,0,7.6,0.1,9.9H152
			c0.2-3.2,0.3-5.9,0.3-7.9c0-2.6-0.3-5-0.8-7.3l4.1-0.5c0.2,1.2,0.3,1.9,0.3,2.1h0.3c1-1.5,2.3-2.3,3.9-2.3
			C160.9,57.1,161.7,57.3,162.7,57.6z"/>
		<path class="st1" d="M179,67.2c0,4.2-3,6.3-9.1,6.3c-2.1,0-4-0.2-5.7-0.7l0.8-3.6c1.7,0.6,3.4,0.9,4.9,0.9c1.7,0,3-0.2,3.7-0.5
			s1.1-0.9,1.1-1.7c0-0.8-0.4-1.5-1.1-2.1c-0.6-0.5-1.9-1.1-3.7-1.9c-1.7-0.7-3-1.5-3.8-2.4c-1-1.1-1.6-2.4-1.6-4
			c0-1.8,0.7-3.3,2.1-4.3c1.4-1,3.3-1.6,5.9-1.6c2.1,0,3.9,0.2,5.3,0.5l-0.6,3.6c-1.4-0.5-3-0.8-4.7-0.8c-2.5,0-3.8,0.7-3.8,2
			c0,0.7,0.3,1.3,0.9,1.8c0.5,0.4,1.6,0.9,3.4,1.6c1.8,0.7,3.2,1.6,4.1,2.4C178.4,64,179,65.5,179,67.2z"/>
		<path class="st1" d="M196,63.6c0,0.5,0,1.3-0.1,2.1L185.6,66c0.2,1.2,0.7,2.2,1.6,3c0.9,0.8,2.1,1.2,3.5,1.2
			c1.6,0,3.3-0.2,5.1-0.7l-0.3,3.1c-1.5,0.5-3.3,0.8-5.5,0.8c-2.8,0-4.9-0.8-6.4-2.3c-1.5-1.6-2.2-3.4-2.2-5.6c0-2.3,0.7-4.3,2.1-6
			c1.4-1.7,3.3-2.5,5.8-2.5c2.3,0,4,0.6,5.1,1.9S196,61.7,196,63.6z M192.3,63.5c0-2.5-1.1-3.7-3.2-3.7c-2,0-3.2,1.3-3.6,3.8
			L192.3,63.5z"/>
		<path class="st1" d="M212,72.9l-3.8,0.1c-0.2-0.5-0.3-0.9-0.3-1.2h-0.2c-1.2,1-2.8,1.5-4.8,1.5c-1.3,0-2.5-0.4-3.3-1.1
			c-0.9-0.7-1.3-1.7-1.3-3c0-1.6,0.7-3,2.1-4c1.4-1,3.8-1.6,7.3-1.7c0-0.2,0-0.4,0-0.5c0-1.2-0.3-1.9-0.8-2.3
			c-0.6-0.4-1.6-0.6-3.1-0.6c-1.6,0-3.2,0.2-4.8,0.6l0.4-3c1.5-0.5,3.5-0.8,6.2-0.8c1.9,0,3.4,0.4,4.5,1.2c1.1,0.8,1.6,2.2,1.6,4.3
			c0,0.5,0,1.3-0.1,2.5c0,1.2-0.1,2-0.1,2.4C211.5,69.7,211.7,71.5,212,72.9z M207.7,69.6c-0.1-1.5-0.1-2.7-0.1-3.8
			c-3.7,0-5.5,0.9-5.5,2.8c0,1.3,0.8,1.9,2.4,1.9C205.8,70.5,206.9,70.2,207.7,69.6z"/>
		<path class="st1" d="M225.8,57.6l-0.9,3.8c-0.8-0.3-1.6-0.5-2.4-0.5c-1.6,0-2.6,0.7-3.1,2.1c0,4.3,0,7.6,0.1,9.9h-4.3
			c0.2-3.2,0.3-5.9,0.3-7.9c0-2.6-0.3-5-0.8-7.3l4.1-0.5c0.2,1.2,0.3,1.9,0.3,2.1h0.3c1-1.5,2.3-2.3,3.9-2.3
			C223.9,57.1,224.8,57.3,225.8,57.6z"/>
		<path class="st1" d="M240,69.6l-0.3,3.1c-1,0.5-2.3,0.8-4,0.8c-2.8,0-4.9-0.8-6.4-2.3c-1.5-1.5-2.2-3.4-2.2-5.6
			c0-2.3,0.8-4.2,2.3-5.9c1.6-1.7,3.7-2.5,6.4-2.5c1.3,0,2.5,0.2,3.5,0.5l-0.5,3.3c-1-0.4-2.1-0.6-3.3-0.6c-1.3,0-2.3,0.5-3.1,1.4
			c-0.8,0.9-1.1,2-1.1,3.4c0,1.5,0.4,2.7,1.3,3.7s2.2,1.5,3.8,1.5C237.4,70.2,238.6,70,240,69.6z"/>
		<path class="st1" d="M257.1,72.9h-4.3c0.2-2.7,0.4-5.4,0.4-7.9c0-1.9-0.2-3.2-0.7-3.8c-0.5-0.6-1.3-0.9-2.4-0.9
			c-1.2,0-2.3,0.4-3.4,1.2c0,4.6,0.1,8.4,0.2,11.4h-4.3c0.1-3.3,0.2-7.3,0.2-12c0-4.3-0.2-7.8-0.5-10.7l4.6-0.3
			c-0.2,3.5-0.2,6.5-0.2,9h0.2c1.4-1.3,3-2,4.9-2c1.7,0,3.1,0.4,4.1,1.2c1,0.8,1.5,2.2,1.5,4.1c0,0.2,0,0.6,0,1.2c0,0.6,0,1,0,1.2
			C257,66.7,257.1,69.4,257.1,72.9z"/>
	</g>
</g>
</svg>
